<svg width="20" height="20" viewBox="0 0 20 20" fill="none" xmlns="http://www.w3.org/2000/svg">
<path d="M6.75 10C8.54493 10 10 8.54493 10 6.75C10 4.95507 8.54493 3.5 6.75 3.5C4.95507 3.5 3.5 4.95507 3.5 6.75C3.5 8.54493 4.95507 10 6.75 10ZM1.5 13C1.5 11.8954 2.39543 11 3.5 11H10C11.1046 11 12 11.8954 12 13C12 13 12 17 6.75 17C1.5 17 1.5 13 1.5 13Z" fill="white"/>
<path d="M14.4992 15.5C13.6409 15.5 12.9668 15.3619 12.4373 15.1449C12.6743 14.6976 12.8096 14.2745 12.8875 13.9363C12.9408 13.7047 12.9688 13.5065 12.9835 13.3575C12.9908 13.2828 12.995 13.2197 12.9973 13.1701L13 13.0625V12.75C13 12.0852 12.7641 11.4755 12.3714 11H16.9992C17.8276 11 18.4992 11.6716 18.4992 12.5C18.4992 12.5 18.4992 15.5 14.4992 15.5Z" fill="white"/>
<path d="M14.5 10C15.8807 10 17 8.88071 17 7.5C17 6.11929 15.8807 5 14.5 5C13.1193 5 12 6.11929 12 7.5C12 8.88071 13.1193 10 14.5 10Z" fill="white"/>
</svg>
